# xmcd CD database file
#
# Track frame offsets:
#	150
#	20275
#	42000
#	64013
#	79675
#	92150
#	121600
#	154788
#	175588
#	188813
#	207813
#	226238
#
# Disc length: 3240 seconds
#
# Revision: 0
# Processed by: cddbd v1.5.1PL2 Copyright (c) Steve Scherf et al.
# Submitted via: CDex 1.51
#
DISCID=840ca60c
DTITLE=Lorin Grean - The Call
DYEAR=1993
DGENRE=New Age
TTITLE0=Every Breath You Take
TTITLE1=Love Goes On
TTITLE2=The Call/Nightsong
TTITLE3=Rightful Place in the World
TTITLE4=Forgive
TTITLE5=Wind on the Water/Blue Interlude
TTITLE6=Suite of Eleusian Memories
TTITLE7=The Porcupine Dance
TTITLE8=Feast of Eyes
TTITLE9=Far Away from the Truth
TTITLE10=Crescent Dance
TTITLE11=Brother Warrior
EXTD=YEAR: 1993
EXTT0=
EXTT1=
EXTT2=
EXTT3=
EXTT4=
EXTT5=
EXTT6=
EXTT7=
EXTT8=
EXTT9=
EXTT10=
EXTT11=
PLAYORDER=
